<svg version="1.1" xmlns="http://www.w3.org/2000/svg" xmlns:xlink="http://www.w3.org/1999/xlink" x="0px" y="0px" viewBox="0 0 40 40" style="enable-background:new 0 0 40 40;" xml:space="preserve">
<g>
	<path style="fill:#151515;" d="M9.21,36.811l0.44-1.766c0.66-0.269,0.877-1.201,1.071-2.038c0.148-0.636,0.316-1.356,0.62-1.642
		C13.878,28.989,16.5,26.533,16.5,20c0-1.072-0.009-2.25-0.017-3.433c-0.008-1.007-0.015-2.016-0.017-2.964h7.066
		c-0.002,0.849-0.009,1.813-0.016,2.796C23.509,17.636,23.5,18.901,23.5,20c0,6.529,2.622,8.987,5.158,11.365
		c0.305,0.286,0.472,1.006,0.62,1.642c0.194,0.837,0.411,1.77,1.071,2.038l0.44,1.766H9.21z"></path>
	<path style="fill:#000000;" d="M23.032,14.103c-0.003,0.718-0.009,1.499-0.014,2.292C23.009,17.634,23,18.9,23,20
		c0,6.745,2.702,9.279,5.316,11.729c0.194,0.182,0.363,0.909,0.475,1.391c0.186,0.799,0.423,1.821,1.129,2.271l0.23,0.919H9.85
		l0.23-0.919c0.706-0.45,0.943-1.472,1.129-2.271c0.105-0.452,0.281-1.209,0.475-1.39C14.297,29.282,17,26.75,17,20
		c0-1.073-0.009-2.253-0.017-3.436c-0.006-0.83-0.012-1.663-0.015-2.46H23.032 M24.034,13.103h-8.069C15.966,15.276,16,17.852,16,20
		c0,6.291-2.421,8.584-5,11c-0.922,0.864-0.683,3.621-1.759,3.621l-0.672,2.69h22.862l-0.672-2.69c-1.077,0-0.836-2.755-1.759-3.621
		c-2.578-2.417-5-4.711-5-11C24,17.852,24.034,15.069,24.034,13.103L24.034,13.103z"></path>
</g>
<g>
	<path style="fill:#151515;" d="M20,19.5c-3.584,0-6.5-2.857-6.5-6.369c0-3.752,5.162-8.354,6.498-9.481
		c1.335,1.138,6.502,5.78,6.502,9.481C26.5,16.643,23.584,19.5,20,19.5z"></path>
	<g>
		<path style="fill:#000000;" d="M19.997,4.303C22.113,6.146,26,10.148,26,13.131C26,16.367,23.308,19,20,19s-6-2.633-6-5.869
			C14,10.109,17.882,6.13,19.997,4.303 M20,3c0,0-7,5.552-7,10.131C13,16.925,16.134,20,20,20s7-3.075,7-6.869C27,8.609,20,3,20,3
			L20,3z"></path>
	</g>
</g>
<g>
	<circle style="fill:#2c2c2c;" cx="20" cy="3" r="2.5"></circle>
	<g>
		<path style="fill:#000000;" d="M20,1c1.103,0,2,0.897,2,2s-0.897,2-2,2s-2-0.897-2-2S18.897,1,20,1 M20,0c-1.657,0-3,1.343-3,3
			s1.343,3,3,3s3-1.343,3-3S21.657,0,20,0L20,0z"></path>
	</g>
</g>
<g>
	<path style="fill:#151515;" d="M5.5,38.5V37c0-1.93,1.57-3.5,3.5-3.5h22c1.93,0,3.5,1.57,3.5,3.5v1.5H5.5z"></path>
	<path style="fill:#000000;" d="M31,34c1.654,0,3,1.346,3,3v1H6v-1c0-1.654,1.346-3,3-3H31 M31,33H9c-2.2,0-4,1.8-4,4v2h30v-2
		C35,34.8,33.2,33,31,33L31,33z"></path>
</g>
<g>
	<path style="fill:#2c2c2c;" d="M10,33.5c-0.827,0-1.5-0.673-1.5-1.5s0.673-1.5,1.5-1.5h20c0.827,0,1.5,0.673,1.5,1.5
		s-0.673,1.5-1.5,1.5H10z"></path>
	<g>
		<path style="fill:#000000;" d="M30,31c0.551,0,1,0.449,1,1s-0.449,1-1,1H10c-0.551,0-1-0.449-1-1s0.449-1,1-1H30 M30,30H10
			c-1.1,0-2,0.9-2,2c0,1.1,0.9,2,2,2h20c1.1,0,2-0.9,2-2C32,30.9,31.1,30,30,30L30,30z"></path>
	</g>
</g>
<g>
	<path style="fill:#2c2c2c;" d="M15,21.5c-0.827,0-1.5-0.673-1.5-1.5s0.673-1.5,1.5-1.5h10c0.827,0,1.5,0.673,1.5,1.5
		s-0.673,1.5-1.5,1.5H15z"></path>
	<g>
		<path style="fill:#000000;" d="M25,19c0.551,0,1,0.449,1,1s-0.449,1-1,1H15c-0.551,0-1-0.449-1-1s0.449-1,1-1H25 M25,18H15
			c-1.1,0-2,0.9-2,2s0.9,2,2,2h10c1.1,0,2-0.9,2-2S26.1,18,25,18L25,18z"></path>
	</g>
</g>
</svg>