<svg version="1.1" id="Layer_1" xmlns="http://www.w3.org/2000/svg" xmlns:xlink="http://www.w3.org/1999/xlink" x="0px" y="0px" viewBox="0 0 40 40" style="enable-background:new 0 0 40 40;" xml:space="preserve">
<g>
	<circle style="fill:#151515;" cx="20" cy="10" r="6.5"></circle>
	<path style="fill:#000000;" d="M20,4c3.308,0,6,2.692,6,6s-2.692,6-6,6s-6-2.692-6-6S16.692,4,20,4 M20,3c-3.866,0-7,3.134-7,7
		s3.134,7,7,7s7-3.134,7-7S23.866,3,20,3L20,3z"></path>
</g>
<g>
	<path style="fill:#151515;" d="M9.209,36.811l0.441-1.766c0.66-0.269,0.876-1.2,1.071-2.038c0.148-0.636,0.316-1.356,0.62-1.642
		C13.893,28.976,16.5,25.638,16.5,19v-3.5h7V19c0,6.634,2.607,9.973,5.158,12.364c0.305,0.286,0.472,1.007,0.62,1.643
		c0.195,0.838,0.412,1.77,1.072,2.038l0.441,1.766H9.209z"></path>
	<path style="fill:#000000;" d="M23,16v3c0,6.865,2.841,10.409,5.316,12.729c0.194,0.182,0.363,0.909,0.475,1.391
		c0.186,0.799,0.423,1.821,1.129,2.271l0.23,0.919H9.85l0.23-0.919c0.706-0.45,0.943-1.472,1.129-2.271
		c0.105-0.452,0.281-1.209,0.475-1.39C14.159,29.411,17,25.869,17,19v-3H23 M24,15h-8c0,2.172,0,1.852,0,4c0,6.291-2.421,9.584-5,12
		c-0.922,0.864-0.683,3.621-1.759,3.621l-0.672,2.69h22.862l-0.672-2.69c-1.077,0-0.836-2.755-1.759-3.621
		c-2.578-2.417-5-5.711-5-12C24,16.852,24,16.966,24,15L24,15z"></path>
</g>
<g>
	<path style="fill:#151515;" d="M5.5,38.5V37c0-1.93,1.57-3.5,3.5-3.5h22c1.93,0,3.5,1.57,3.5,3.5v1.5H5.5z"></path>
	<path style="fill:#000000;" d="M31,34c1.654,0,3,1.346,3,3v1H6v-1c0-1.654,1.346-3,3-3H31 M31,33H9c-2.2,0-4,1.8-4,4v2h30v-2
		C35,34.8,33.2,33,31,33L31,33z"></path>
</g>
<g>
	<path style="fill:#2c2c2c;" d="M10,33.5c-0.827,0-1.5-0.673-1.5-1.5s0.673-1.5,1.5-1.5h20c0.827,0,1.5,0.673,1.5,1.5
		s-0.673,1.5-1.5,1.5H10z"></path>
	<g>
		<path style="fill:#000000;" d="M30,31c0.551,0,1,0.449,1,1s-0.449,1-1,1H10c-0.551,0-1-0.449-1-1s0.449-1,1-1H30 M30,30H10
			c-1.1,0-2,0.9-2,2s0.9,2,2,2h20c1.1,0,2-0.9,2-2S31.1,30,30,30L30,30z"></path>
	</g>
</g>
<g>
	<path style="fill:#2c2c2c;" d="M15,18.5c-0.827,0-1.5-0.673-1.5-1.5s0.673-1.5,1.5-1.5h10c0.827,0,1.5,0.673,1.5,1.5
		s-0.673,1.5-1.5,1.5H15z"></path>
	<g>
		<path style="fill:#000000;" d="M25,16c0.551,0,1,0.449,1,1s-0.449,1-1,1H15c-0.551,0-1-0.449-1-1s0.449-1,1-1H25 M25,15H15
			c-1.1,0-2,0.9-2,2s0.9,2,2,2h10c1.1,0,2-0.9,2-2S26.1,15,25,15L25,15z"></path>
	</g>
</g>
</svg>