<svg version="1.1" id="Layer_1" xmlns="http://www.w3.org/2000/svg" xmlns:xlink="http://www.w3.org/1999/xlink" x="0px" y="0px" viewBox="0 0 40 40" style="enable-background:new 0 0 40 40;" xml:space="preserve">
<g>
	<path style="fill:#151515;" d="M9.21,36.811l0.44-1.766c0.66-0.269,0.877-1.201,1.071-2.038c0.148-0.636,0.316-1.356,0.62-1.642
		C13.878,28.989,16.5,26.533,16.5,20c0-1.071-0.009-2.499-0.017-3.93c-0.008-1.227-0.015-2.456-0.017-3.467h7.066
		c-0.002,0.914-0.009,2.086-0.016,3.28C23.509,17.376,23.5,18.901,23.5,20c0,6.529,2.622,8.987,5.158,11.365
		c0.305,0.285,0.472,1.006,0.62,1.642c0.194,0.838,0.411,1.77,1.071,2.038l0.44,1.766H9.21z"></path>
	<path style="fill:#000000;" d="M23.032,13.103c-0.003,0.822-0.009,1.792-0.015,2.777C23.009,17.374,23,18.901,23,20
		c0,6.745,2.702,9.279,5.316,11.729c0.194,0.182,0.363,0.909,0.475,1.391c0.186,0.799,0.423,1.821,1.129,2.271l0.23,0.919H9.85
		l0.23-0.919c0.706-0.45,0.943-1.472,1.129-2.271c0.105-0.452,0.281-1.209,0.475-1.39C14.297,29.282,17,26.75,17,20
		c0-1.073-0.009-2.501-0.017-3.933c-0.006-1.03-0.012-2.061-0.015-2.964H23.032 M24.034,12.103h-8.069
		C15.966,14.276,16,17.852,16,20c0,6.291-2.421,8.584-5,11c-0.922,0.864-0.683,3.621-1.759,3.621l-0.672,2.69h22.862l-0.672-2.69
		c-1.077,0-0.836-2.755-1.759-3.621c-2.578-2.417-5-4.711-5-11C24,17.852,24.034,14.069,24.034,12.103L24.034,12.103z"></path>
</g>
<g>
	<circle style="fill:#151515;" cx="20" cy="10" r="5.5"></circle>
	<g>
		<path style="fill:#000000;" d="M20,5c2.757,0,5,2.243,5,5s-2.243,5-5,5s-5-2.243-5-5S17.243,5,20,5 M20,4c-3.314,0-6,2.686-6,6
			s2.686,6,6,6s6-2.686,6-6S23.314,4,20,4L20,4z"></path>
	</g>
</g>
<g>
	<circle style="fill:#2c2c2c;" cx="20" cy="3" r="1.5"></circle>
	<g>
		<path style="fill:#000000;" d="M20,2c0.551,0,1,0.449,1,1s-0.449,1-1,1s-1-0.449-1-1S19.449,2,20,2 M20,1c-1.105,0-2,0.895-2,2
			s0.895,2,2,2s2-0.895,2-2S21.105,1,20,1L20,1z"></path>
	</g>
</g>
<g>
	<polygon style="fill:#151515;" points="16.36,18.5 12.815,7.864 17.12,9.587 20,6.707 22.88,9.587 27.185,7.864 23.64,18.5 	"></polygon>
	<g>
		<path style="fill:#000000;" d="M20,7.414l2.293,2.293l0.466,0.466l0.612-0.245l2.998-1.199L23.279,18h-6.558l-3.09-9.271
			l2.998,1.199l0.612,0.245l0.466-0.466L20,7.414 M20,6l-3,3l-5-2l4,12h8l4-12l-5,2L20,6L20,6z"></path>
	</g>
</g>
<g>
	<path style="fill:#151515;" d="M5.5,38.5V37c0-1.93,1.57-3.5,3.5-3.5h22c1.93,0,3.5,1.57,3.5,3.5v1.5H5.5z"></path>
	<path style="fill:#000000;" d="M31,34c1.654,0,3,1.346,3,3v1H6v-1c0-1.654,1.346-3,3-3H31 M31,33H9c-2.2,0-4,1.8-4,4v2h30v-2
		C35,34.8,33.2,33,31,33L31,33z"></path>
</g>
<g>
	<path style="fill:#2c2c2c;" d="M10,33.5c-0.827,0-1.5-0.673-1.5-1.5s0.673-1.5,1.5-1.5h20c0.827,0,1.5,0.673,1.5,1.5
		s-0.673,1.5-1.5,1.5H10z"></path>
	<g>
		<path style="fill:#000000;" d="M30,31c0.551,0,1,0.449,1,1s-0.449,1-1,1H10c-0.551,0-1-0.449-1-1s0.449-1,1-1H30 M30,30H10
			c-1.1,0-2,0.9-2,2s0.9,2,2,2h20c1.1,0,2-0.9,2-2S31.1,30,30,30L30,30z"></path>
	</g>
</g>
<g>
	<path style="fill:#2c2c2c;" d="M15,21.5c-0.827,0-1.5-0.673-1.5-1.5s0.673-1.5,1.5-1.5h10c0.827,0,1.5,0.673,1.5,1.5
		s-0.673,1.5-1.5,1.5H15z"></path>
	<g>
		<path style="fill:#000000;" d="M25,19c0.551,0,1,0.449,1,1s-0.449,1-1,1H15c-0.551,0-1-0.449-1-1s0.449-1,1-1H25 M25,18H15
			c-1.1,0-2,0.9-2,2s0.9,2,2,2h10c1.1,0,2-0.9,2-2S26.1,18,25,18L25,18z"></path>
	</g>
</g>
</svg>