<svg xmlns="http://www.w3.org/2000/svg" xmlns:xlink="http://www.w3.org/1999/xlink" viewBox="0 0 40 40" version="1.1">
<g id="surface1">
<path style=" fill:#e9e9e9;" d="M 12.375 30.5 C 12.8125 27.628906 12.074219 25.890625 11.234375 23.898438 C 10.421875 21.976563 9.5 19.800781 9.5 16 C 9.5 7.984375 14.816406 5.980469 17.105469 5.488281 L 17.417969 5.421875 L 17.488281 5.109375 C 17.910156 3.175781 19.570313 2.160156 20.5 1.734375 L 20.5 5.425781 L 20.914063 5.496094 C 22.191406 5.710938 23.4375 5.945313 24.664063 6.410156 L 26.640625 9.511719 L 26.738281 9.570313 C 26.769531 9.59375 29.761719 11.445313 31.367188 13.929688 L 28.890625 16.402344 C 28.316406 16.144531 27.007813 15.578125 25.3125 14.957031 L 25.089844 14.875 L 24.886719 14.996094 C 24.316406 15.332031 23.769531 15.503906 23.257813 15.503906 C 22.402344 15.503906 21.605469 15.191406 21.066406 14.648438 L 20.921875 14.503906 L 19.484375 14.5 L 19.511719 15.023438 C 19.664063 18.398438 21.5625 20.320313 23.398438 22.175781 C 25.40625 24.210938 27.480469 26.308594 27.632813 30.5 Z "></path>
<path style=" fill:#515151;" d="M 20 2.566406 L 20 5.84375 L 20.832031 5.984375 C 22.027344 6.1875 23.199219 6.40625 24.335938 6.816406 L 26.15625 9.679688 L 26.28125 9.875 L 26.476563 9.996094 C 26.507813 10.011719 29.140625 11.640625 30.722656 13.863281 L 28.78125 15.804688 C 28.101563 15.507813 26.933594 15.011719 25.484375 14.484375 L 25.039063 14.320313 L 24.628906 14.5625 C 24.140625 14.851563 23.679688 15 23.257813 15 C 22.546875 15 21.859375 14.738281 21.425781 14.296875 L 21.132813 14 L 18.964844 14 L 19.011719 15.046875 C 19.171875 18.613281 21.140625 20.605469 23.042969 22.527344 C 24.980469 24.492188 26.820313 26.355469 27.105469 30 L 12.941406 30 C 13.222656 27.3125 12.476563 25.554688 11.695313 23.703125 C 10.898438 21.824219 10 19.699219 10 16 C 10 8.347656 15.042969 6.441406 17.210938 5.976563 L 17.839844 5.84375 L 17.976563 5.214844 C 18.261719 3.910156 19.199219 3.066406 20 2.566406 M 21 1 C 21 1 17.667969 1.949219 17 5 C 13.445313 5.761719 9 8.59375 9 16 C 9 24 12.96875 24.976563 11.78125 31 L 28.144531 31 C 28.144531 22.1875 20.320313 21.875 20.011719 15 C 20.25 15 20.4375 15 20.714844 15 C 21.308594 15.601563 22.222656 16 23.257813 16 C 23.960938 16 24.609375 15.738281 25.140625 15.421875 C 27.40625 16.253906 29 17 29 17 L 32 14 C 30.375 11.207031 27 9.144531 27 9.144531 L 25 6 C 23.625 5.457031 22.199219 5.203125 21 5 Z "></path>
<path style=" fill:#e9e9e9;" d="M 6.5 38.5 L 6.5 37 C 6.5 35.070313 8.070313 33.5 10 33.5 L 30 33.5 C 31.929688 33.5 33.5 35.070313 33.5 37 L 33.5 38.5 Z "></path>
<path style=" fill:#515151;" d="M 30 34 C 31.652344 34 33 35.347656 33 37 L 33 38 L 7 38 L 7 37 C 7 35.347656 8.347656 34 10 34 L 30 34 M 30 33 L 10 33 C 7.800781 33 6 34.800781 6 37 L 6 39 L 34 39 L 34 37 C 34 34.800781 32.199219 33 30 33 Z "></path>
<path style=" fill:#FFFFFF;" d="M 11 33.5 C 10.171875 33.5 9.5 32.828125 9.5 32 C 9.5 31.171875 10.171875 30.5 11 30.5 L 29 30.5 C 29.828125 30.5 30.5 31.171875 30.5 32 C 30.5 32.828125 29.828125 33.5 29 33.5 Z "></path>
<path style=" fill:#515151;" d="M 29 31 C 29.550781 31 30 31.449219 30 32 C 30 32.550781 29.550781 33 29 33 L 11 33 C 10.449219 33 10 32.550781 10 32 C 10 31.449219 10.449219 31 11 31 L 29 31 M 29 30 L 11 30 C 9.898438 30 9 30.898438 9 32 C 9 33.101563 9.898438 34 11 34 L 29 34 C 30.101563 34 31 33.101563 31 32 C 31 30.898438 30.101563 30 29 30 Z "></path>
</g>
</svg>