<svg xmlns="http://www.w3.org/2000/svg" xmlns:xlink="http://www.w3.org/1999/xlink" viewBox="0 0 40 40" version="1.1">
<g id="surface1">
<path style=" fill:#e9e9e9;" d="M 9.210938 36.8125 L 9.648438 35.046875 C 10.308594 34.777344 10.527344 33.84375 10.722656 33.007813 C 10.867188 32.371094 11.035156 31.652344 11.339844 31.363281 C 13.878906 28.988281 16.5 26.53125 16.5 20 C 16.5 18.929688 16.492188 17.5 16.484375 16.070313 C 16.476563 14.84375 16.46875 13.613281 16.464844 12.601563 L 23.53125 12.601563 C 23.53125 13.515625 23.523438 14.6875 23.515625 15.882813 C 23.507813 17.375 23.5 18.902344 23.5 20 C 23.5 26.527344 26.121094 28.988281 28.65625 31.363281 C 28.964844 31.648438 29.128906 32.371094 29.277344 33.007813 C 29.472656 33.84375 29.6875 34.777344 30.347656 35.046875 L 30.789063 36.8125 Z "></path>
<path style=" fill:#515151;" d="M 23.03125 13.101563 C 23.027344 13.925781 23.023438 14.894531 23.015625 15.878906 C 23.007813 17.375 23 18.902344 23 20 C 23 26.746094 25.703125 29.277344 28.316406 31.730469 C 28.511719 31.910156 28.679688 32.636719 28.789063 33.121094 C 28.976563 33.917969 29.214844 34.941406 29.921875 35.390625 L 30.148438 36.308594 L 9.851563 36.308594 L 10.078125 35.390625 C 10.785156 34.941406 11.023438 33.917969 11.210938 33.121094 C 11.3125 32.667969 11.488281 31.910156 11.683594 31.730469 C 14.296875 29.28125 17 26.75 17 20 C 17 18.925781 16.992188 17.5 16.984375 16.066406 C 16.976563 15.035156 16.972656 14.007813 16.96875 13.101563 L 23.03125 13.101563 M 24.035156 12.101563 L 15.964844 12.101563 C 15.964844 14.277344 16 17.851563 16 20 C 16 26.289063 13.578125 28.585938 11 31 C 10.078125 31.863281 10.316406 34.621094 9.242188 34.621094 L 8.570313 37.3125 L 31.429688 37.3125 L 30.757813 34.621094 C 29.683594 34.621094 29.921875 31.867188 29 31 C 26.421875 28.582031 24 26.289063 24 20 C 24 17.851563 24.035156 14.070313 24.035156 12.101563 Z "></path>
<path style=" fill:#e9e9e9;" d="M 25.5 10 C 25.5 13.039063 23.039063 15.5 20 15.5 C 16.960938 15.5 14.5 13.039063 14.5 10 C 14.5 6.960938 16.960938 4.5 20 4.5 C 23.039063 4.5 25.5 6.960938 25.5 10 Z "></path>
<path style=" fill:#515151;" d="M 20 5 C 22.757813 5 25 7.242188 25 10 C 25 12.757813 22.757813 15 20 15 C 17.242188 15 15 12.757813 15 10 C 15 7.242188 17.242188 5 20 5 M 20 4 C 16.6875 4 14 6.6875 14 10 C 14 13.3125 16.6875 16 20 16 C 23.3125 16 26 13.3125 26 10 C 26 6.6875 23.3125 4 20 4 Z "></path>
<path style=" fill:#FFFFFF;" d="M 21.5 3 C 21.5 3.828125 20.828125 4.5 20 4.5 C 19.171875 4.5 18.5 3.828125 18.5 3 C 18.5 2.171875 19.171875 1.5 20 1.5 C 20.828125 1.5 21.5 2.171875 21.5 3 Z "></path>
<path style=" fill:#515151;" d="M 20 2 C 20.550781 2 21 2.449219 21 3 C 21 3.550781 20.550781 4 20 4 C 19.449219 4 19 3.550781 19 3 C 19 2.449219 19.449219 2 20 2 M 20 1 C 18.894531 1 18 1.894531 18 3 C 18 4.105469 18.894531 5 20 5 C 21.105469 5 22 4.105469 22 3 C 22 1.894531 21.105469 1 20 1 Z "></path>
<path style=" fill:#e9e9e9;" d="M 16.359375 18.5 L 12.816406 7.863281 L 17.121094 9.585938 L 20 6.707031 L 22.878906 9.585938 L 27.183594 7.863281 L 23.640625 18.5 Z "></path>
<path style=" fill:#515151;" d="M 20 7.414063 L 22.757813 10.171875 L 23.371094 9.929688 L 26.367188 8.730469 L 23.277344 18 L 16.722656 18 L 13.632813 8.730469 L 16.628906 9.929688 L 17.242188 10.171875 L 20 7.414063 M 20 6 L 17 9 L 12 7 L 16 19 L 24 19 L 28 7 L 23 9 Z "></path>
<path style=" fill:#e9e9e9;" d="M 5.5 38.5 L 5.5 37 C 5.5 35.070313 7.070313 33.5 9 33.5 L 31 33.5 C 32.929688 33.5 34.5 35.070313 34.5 37 L 34.5 38.5 Z "></path>
<path style=" fill:#515151;" d="M 31 34 C 32.652344 34 34 35.347656 34 37 L 34 38 L 6 38 L 6 37 C 6 35.347656 7.347656 34 9 34 L 31 34 M 31 33 L 9 33 C 6.800781 33 5 34.800781 5 37 L 5 39 L 35 39 L 35 37 C 35 34.800781 33.199219 33 31 33 Z "></path>
<path style=" fill:#FFFFFF;" d="M 10 33.5 C 9.171875 33.5 8.5 32.828125 8.5 32 C 8.5 31.171875 9.171875 30.5 10 30.5 L 30 30.5 C 30.828125 30.5 31.5 31.171875 31.5 32 C 31.5 32.828125 30.828125 33.5 30 33.5 Z "></path>
<path style=" fill:#515151;" d="M 30 31 C 30.550781 31 31 31.449219 31 32 C 31 32.550781 30.550781 33 30 33 L 10 33 C 9.449219 33 9 32.550781 9 32 C 9 31.449219 9.449219 31 10 31 L 30 31 M 30 30 L 10 30 C 8.898438 30 8 30.898438 8 32 C 8 33.101563 8.898438 34 10 34 L 30 34 C 31.101563 34 32 33.101563 32 32 C 32 30.898438 31.101563 30 30 30 Z "></path>
<path style=" fill:#FFFFFF;" d="M 15 21.5 C 14.171875 21.5 13.5 20.828125 13.5 20 C 13.5 19.171875 14.171875 18.5 15 18.5 L 25 18.5 C 25.828125 18.5 26.5 19.171875 26.5 20 C 26.5 20.828125 25.828125 21.5 25 21.5 Z "></path>
<path style=" fill:#515151;" d="M 25 19 C 25.550781 19 26 19.449219 26 20 C 26 20.550781 25.550781 21 25 21 L 15 21 C 14.449219 21 14 20.550781 14 20 C 14 19.449219 14.449219 19 15 19 L 25 19 M 25 18 L 15 18 C 13.898438 18 13 18.898438 13 20 C 13 21.101563 13.898438 22 15 22 L 25 22 C 26.101563 22 27 21.101563 27 20 C 27 18.898438 26.101563 18 25 18 Z "></path>
</g>
</svg>