<svg version="1.1" id="Layer_1" xmlns="http://www.w3.org/2000/svg" xmlns:xlink="http://www.w3.org/1999/xlink" x="0px" y="0px" viewBox="0 0 40 40" style="enable-background:new 0 0 40 40;" xml:space="preserve">
<g>
	<path style="fill:#425371;" d="M12.376,30.5c0.436-2.872-0.3-4.61-1.143-6.602C10.421,21.978,9.5,19.8,9.5,16
		c0-8.017,5.318-10.021,7.604-10.511l0.315-0.067l0.068-0.314c0.423-1.934,2.083-2.949,3.012-3.375v3.691l0.416,0.071
		c1.276,0.217,2.523,0.451,3.75,0.914l1.975,3.102l0.099,0.061c0.031,0.02,3.023,1.872,4.628,4.356l-2.476,2.476
		c-0.576-0.259-1.884-0.827-3.579-1.448l-0.223-0.082l-0.204,0.121c-0.568,0.337-1.117,0.508-1.629,0.508
		c-0.854,0-1.652-0.311-2.188-0.853l-0.146-0.148L19.486,14.5l0.024,0.522c0.153,3.377,2.051,5.298,3.887,7.155
		c2.009,2.034,4.083,4.133,4.236,8.322H12.376z"></path>
	<path style="fill:#788B9C;" d="M20,2.566V5v0.844l0.833,0.141c1.196,0.203,2.365,0.421,3.503,0.832l1.821,2.862l0.124,0.195
		l0.197,0.121c0.029,0.018,2.661,1.644,4.244,3.868l-1.941,1.941c-0.679-0.298-1.849-0.791-3.297-1.321l-0.446-0.163l-0.408,0.242
		C24.141,14.853,23.679,15,23.257,15c-0.712,0-1.396-0.263-1.831-0.704l-0.294-0.297h-0.418l-0.38,0.001l-0.325,0h-1.046
		l0.048,1.045c0.162,3.568,2.129,5.559,4.031,7.484c1.939,1.963,3.78,3.825,4.064,7.471H12.943c0.278-2.687-0.467-4.447-1.249-6.296
		C10.9,21.826,10,19.699,10,16c0-7.652,5.042-9.558,7.209-10.022l0.63-0.135l0.138-0.629C18.262,3.909,19.198,3.066,20,2.566 M21,1
		c0,0-3.333,0.951-4,4c-3.556,0.762-8,3.592-8,11c0,8,3.969,8.978,2.781,15h16.362c0-8.812-7.821-9.125-8.133-16
		c0.24,0,0.428-0.001,0.705-0.001C21.308,15.6,22.222,16,23.257,16c0.703,0,1.351-0.262,1.883-0.578C27.408,16.253,29,17,29,17l3-3
		c-1.625-2.792-5-4.857-5-4.857L25,6c-1.375-0.542-2.8-0.796-4-1V1L21,1z"></path>
</g>
<g>
	<g>
		<path style="fill:#425371;" d="M6.5,38.5V37c0-1.93,1.57-3.5,3.5-3.5h20c1.93,0,3.5,1.57,3.5,3.5v1.5H6.5z"></path>
		<path style="fill:#788B9C;" d="M30,34c1.654,0,3,1.346,3,3v1H7v-1c0-1.654,1.346-3,3-3H30 M30,33H10c-2.2,0-4,1.8-4,4v2h28v-2
			C34,34.8,32.2,33,30,33L30,33z"></path>
	</g>
	<g>
		<path style="fill:#FFEEA3;" d="M11,33.5c-0.827,0-1.5-0.673-1.5-1.5s0.673-1.5,1.5-1.5h18c0.827,0,1.5,0.673,1.5,1.5
			s-0.673,1.5-1.5,1.5H11z"></path>
		<g>
			<path style="fill:#BA9B48;" d="M29,31c0.551,0,1,0.449,1,1s-0.449,1-1,1H11c-0.551,0-1-0.449-1-1s0.449-1,1-1H29 M29,30H11
				c-1.1,0-2,0.9-2,2s0.9,2,2,2h18c1.1,0,2-0.9,2-2S30.1,30,29,30L29,30z"></path>
		</g>
	</g>
</g>
</svg>