<svg xmlns="http://www.w3.org/2000/svg" xmlns:xlink="http://www.w3.org/1999/xlink" viewBox="0 0 40 40" version="1.1">
<g id="surface1">
<path style=" fill:#DFF0FE;" d="M 13 15.5 C 11.070313 15.5 9.5 13.929688 9.5 12 L 9.5 4.5 L 14.5 4.5 L 14.5 10 C 14.5 10.828125 15.171875 11.5 16 11.5 C 16.828125 11.5 17.5 10.828125 17.5 10 L 17.5 4.5 L 22.5 4.5 L 22.5 10 C 22.5 10.828125 23.171875 11.5 24 11.5 C 24.828125 11.5 25.5 10.828125 25.5 10 L 25.5 4.5 L 30.5 4.5 L 30.5 12 C 30.5 13.929688 28.929688 15.5 27 15.5 Z "></path>
<path style=" fill:#4788C7;" d="M 30 5 L 30 12 C 30 13.652344 28.652344 15 27 15 L 13 15 C 11.347656 15 10 13.652344 10 12 L 10 5 L 14 5 L 14 10 C 14 11.101563 14.898438 12 16 12 C 17.101563 12 18 11.101563 18 10 L 18 5 L 22 5 L 22 10 C 22 11.101563 22.898438 12 24 12 C 25.101563 12 26 11.101563 26 10 L 26 5 L 30 5 M 31 4 L 25 4 L 25 10 C 25 10.550781 24.550781 11 24 11 C 23.449219 11 23 10.550781 23 10 L 23 4 L 17 4 L 17 10 C 17 10.550781 16.550781 11 16 11 C 15.449219 11 15 10.550781 15 10 L 15 4 L 9 4 L 9 12 C 9 14.210938 10.789063 16 13 16 L 27 16 C 29.210938 16 31 14.210938 31 12 Z "></path>
<path style=" fill:#DFF0FE;" d="M 9.210938 36.8125 L 9.648438 35.046875 C 10.308594 34.777344 10.527344 33.84375 10.722656 33.007813 C 10.867188 32.371094 11.035156 31.652344 11.339844 31.363281 C 13.894531 28.976563 16.5 25.636719 16.5 19 L 16.5 15.5 L 23.5 15.5 L 23.5 19 C 23.5 25.636719 26.105469 28.972656 28.65625 31.363281 C 28.964844 31.648438 29.128906 32.371094 29.277344 33.007813 C 29.472656 33.84375 29.6875 34.777344 30.347656 35.046875 L 30.789063 36.8125 Z "></path>
<path style=" fill:#4788C7;" d="M 23 16 L 23 19 C 23 25.863281 25.839844 29.410156 28.316406 31.730469 C 28.511719 31.910156 28.679688 32.636719 28.789063 33.121094 C 28.976563 33.917969 29.214844 34.941406 29.921875 35.390625 L 30.148438 36.308594 L 9.851563 36.308594 L 10.078125 35.390625 C 10.785156 34.941406 11.023438 33.917969 11.210938 33.121094 C 11.3125 32.667969 11.488281 31.910156 11.683594 31.730469 C 14.160156 29.410156 17 25.867188 17 19 L 17 16 L 23 16 M 24 15 L 16 15 C 16 17.171875 16 16.851563 16 19 C 16 25.289063 13.578125 28.585938 11 31 C 10.078125 31.863281 10.316406 34.621094 9.242188 34.621094 L 8.570313 37.3125 L 31.429688 37.3125 L 30.757813 34.621094 C 29.683594 34.621094 29.921875 31.867188 29 31 C 26.421875 28.582031 24 25.289063 24 19 C 24 16.851563 24 16.964844 24 15 Z "></path>
<path style=" fill:#DFF0FE;" d="M 5.5 38.5 L 5.5 37 C 5.5 35.070313 7.070313 33.5 9 33.5 L 31 33.5 C 32.929688 33.5 34.5 35.070313 34.5 37 L 34.5 38.5 Z "></path>
<path style=" fill:#4788C7;" d="M 31 34 C 32.652344 34 34 35.347656 34 37 L 34 38 L 6 38 L 6 37 C 6 35.347656 7.347656 34 9 34 L 31 34 M 31 33 L 9 33 C 6.800781 33 5 34.800781 5 37 L 5 39 L 35 39 L 35 37 C 35 34.800781 33.199219 33 31 33 Z "></path>
<path style=" fill:#FFFFFF;" d="M 10 33.5 C 9.171875 33.5 8.5 32.828125 8.5 32 C 8.5 31.171875 9.171875 30.5 10 30.5 L 30 30.5 C 30.828125 30.5 31.5 31.171875 31.5 32 C 31.5 32.828125 30.828125 33.5 30 33.5 Z "></path>
<path style=" fill:#4788C7;" d="M 30 31 C 30.550781 31 31 31.449219 31 32 C 31 32.550781 30.550781 33 30 33 L 10 33 C 9.449219 33 9 32.550781 9 32 C 9 31.449219 9.449219 31 10 31 L 30 31 M 30 30 L 10 30 C 8.898438 30 8 30.898438 8 32 C 8 33.101563 8.898438 34 10 34 L 30 34 C 31.101563 34 32 33.101563 32 32 C 32 30.898438 31.101563 30 30 30 Z "></path>
<path style=" fill:#FFFFFF;" d="M 15 18.5 C 14.171875 18.5 13.5 17.828125 13.5 17 C 13.5 16.171875 14.171875 15.5 15 15.5 L 25 15.5 C 25.828125 15.5 26.5 16.171875 26.5 17 C 26.5 17.828125 25.828125 18.5 25 18.5 Z "></path>
<path style=" fill:#4788C7;" d="M 25 16 C 25.550781 16 26 16.449219 26 17 C 26 17.550781 25.550781 18 25 18 L 15 18 C 14.449219 18 14 17.550781 14 17 C 14 16.449219 14.449219 16 15 16 L 25 16 M 25 15 L 15 15 C 13.898438 15 13 15.898438 13 17 C 13 18.101563 13.898438 19 15 19 L 25 19 C 26.101563 19 27 18.101563 27 17 C 27 15.898438 26.101563 15 25 15 Z "></path>
</g>
</svg>